HIERARCHY
ROOT Hips
{
	OFFSET 0.000000 97.167313 0.000000
	CHANNELS 6 Xposition Yposition Zposition Xrotation Yrotation Zrotation
	JOINT Spine
	{
		OFFSET 0.000000 13.784798 0.064400
		CHANNELS 3 Xrotation Yrotation Zrotation
		JOINT Spine1
		{
			OFFSET 0.000000 12.037903 0.404700
			CHANNELS 3 Xrotation Yrotation Zrotation
			JOINT Spine2
			{
				OFFSET 0.000000 17.795601 0.420200
				CHANNELS 3 Xrotation Yrotation Zrotation
				JOINT Neck
				{
					OFFSET 0.000000 39.131302 11.954600
					CHANNELS 3 Xrotation Yrotation Zrotation
					JOINT Head
					{
						OFFSET 0.000000 14.456192 15.627699
						CHANNELS 3 Xrotation Yrotation Zrotation
						JOINT HeadTop_End
						{
							OFFSET 0.000000 15.703506 7.603401
							CHANNELS 3 Xrotation Yrotation Zrotation
							End Site
							{
								OFFSET 0.000000 17.447403 0.000000
							}
						}
					}
				}
				JOINT LeftShoulder
				{
					OFFSET 17.399500 24.608795 1.168800
					CHANNELS 3 Xrotation Yrotation Zrotation
					JOINT LeftArm
					{
						OFFSET 18.980635 5.765305 1.818600
						CHANNELS 3 Xrotation Yrotation Zrotation
						JOINT LeftForeArm
						{
							OFFSET 49.290169 0.000000 0.000000
							CHANNELS 3 Xrotation Yrotation Zrotation
							JOINT LeftHand
							{
								OFFSET 31.562012 0.000000 0.000000
								CHANNELS 3 Xrotation Yrotation Zrotation
								JOINT LeftHandThumb1
								{
									OFFSET 6.133995 -4.388519 7.076070
									CHANNELS 3 Xrotation Yrotation Zrotation
									JOINT LeftHandThumb2
									{
										OFFSET 6.037666 -3.485840 3.485847
										CHANNELS 3 Xrotation Yrotation Zrotation
										JOINT LeftHandThumb3
										{
											OFFSET 6.496506 -3.750763 3.750761
											CHANNELS 3 Xrotation Yrotation Zrotation
											JOINT LeftHandThumb4
											{
												OFFSET 5.616882 -3.242905 3.242910
												CHANNELS 3 Xrotation Yrotation Zrotation
												End Site
												{
													OFFSET -1.254608 7.132141 0.375429
												}
											}
										}
									}
								}
								JOINT LeftHandPinky1
								{
									OFFSET 18.920792 -0.453171 -11.426712
									CHANNELS 3 Xrotation Yrotation Zrotation
									JOINT LeftHandPinky2
									{
										OFFSET 4.919586 0.000000 0.000000
										CHANNELS 3 Xrotation Yrotation Zrotation
										JOINT LeftHandPinky3
										{
											OFFSET 5.233047 0.000000 0.000000
											CHANNELS 3 Xrotation Yrotation Zrotation
											JOINT LeftHandPinky4
											{
												OFFSET 5.571716 0.000000 0.000000
												CHANNELS 3 Xrotation Yrotation Zrotation
												End Site
												{
													OFFSET -3.459808 4.342407 -0.466164
												}
											}
										}
									}
								}
								JOINT LeftHandRing1
								{
									OFFSET 22.726120 -0.094986 -6.500475
									CHANNELS 3 Xrotation Yrotation Zrotation
									JOINT LeftHandRing2
									{
										OFFSET 6.408615 0.000000 0.000000
										CHANNELS 3 Xrotation Yrotation Zrotation
										JOINT LeftHandRing3
										{
											OFFSET 6.150223 0.000000 0.000000
											CHANNELS 3 Xrotation Yrotation Zrotation
											JOINT LeftHandRing4
											{
												OFFSET 6.145386 0.000000 0.000000
												CHANNELS 3 Xrotation Yrotation Zrotation
												End Site
												{
													OFFSET -3.671402 4.923981 -0.202372
												}
											}
										}
									}
								}
								JOINT LeftHandMiddle1
								{
									OFFSET 23.373947 0.000000 0.000001
									CHANNELS 3 Xrotation Yrotation Zrotation
									JOINT LeftHandMiddle2
									{
										OFFSET 6.996567 0.000000 0.000000
										CHANNELS 3 Xrotation Yrotation Zrotation
										JOINT LeftHandMiddle3
										{
											OFFSET 7.015945 0.000000 0.000000
											CHANNELS 3 Xrotation Yrotation Zrotation
											JOINT LeftHandMiddle4
											{
												OFFSET 7.721573 0.000000 0.000000
												CHANNELS 3 Xrotation Yrotation Zrotation
												End Site
												{
													OFFSET -4.651108 6.158463 0.251582
												}
											}
										}
									}
								}
								JOINT LeftHandIndex1
								{
									OFFSET 21.310577 -0.490082 6.209344
									CHANNELS 3 Xrotation Yrotation Zrotation
									JOINT LeftHandIndex2
									{
										OFFSET 7.536453 0.000000 0.000000
										CHANNELS 3 Xrotation Yrotation Zrotation
										JOINT LeftHandIndex3
										{
											OFFSET 7.512344 0.000000 0.000000
											CHANNELS 3 Xrotation Yrotation Zrotation
											JOINT LeftHandIndex4
											{
												OFFSET 10.212402 0.000000 0.000001
												CHANNELS 3 Xrotation Yrotation Zrotation
												End Site
												{
													OFFSET -5.180801 8.690506 1.388433
												}
											}
										}
									}
								}
							}
						}
					}
				}
				JOINT RightShoulder
				{
					OFFSET -17.399500 24.608795 1.168800
					CHANNELS 3 Xrotation Yrotation Zrotation
					JOINT RightArm
					{
						OFFSET -18.980635 5.765305 1.818600
						CHANNELS 3 Xrotation Yrotation Zrotation
						JOINT RightForeArm
						{
							OFFSET -49.290169 0.000000 0.000000
							CHANNELS 3 Xrotation Yrotation Zrotation
							JOINT RightHand
							{
								OFFSET -31.562012 0.000000 0.000000
								CHANNELS 3 Xrotation Yrotation Zrotation
								JOINT RightHandThumb1
								{
									OFFSET -6.133995 -4.388519 7.076070
									CHANNELS 3 Xrotation Yrotation Zrotation
									JOINT RightHandThumb2
									{
										OFFSET -6.037666 -3.485840 3.485847
										CHANNELS 3 Xrotation Yrotation Zrotation
										JOINT RightHandThumb3
										{
											OFFSET -6.496506 -3.750763 3.750761
											CHANNELS 3 Xrotation Yrotation Zrotation
											JOINT RightHandThumb4
											{
												OFFSET -5.616882 -3.242905 3.242910
												CHANNELS 3 Xrotation Yrotation Zrotation
												End Site
												{
													OFFSET 1.254608 7.132141 0.375429
												}
											}
										}
									}
								}
								JOINT RightHandIndex1
								{
									OFFSET -21.310577 -0.490082 6.209344
									CHANNELS 3 Xrotation Yrotation Zrotation
									JOINT RightHandIndex2
									{
										OFFSET -7.536453 0.000000 0.000000
										CHANNELS 3 Xrotation Yrotation Zrotation
										JOINT RightHandIndex3
										{
											OFFSET -7.512344 0.000000 0.000000
											CHANNELS 3 Xrotation Yrotation Zrotation
											JOINT RightHandIndex4
											{
												OFFSET -10.212402 0.000000 0.000001
												CHANNELS 3 Xrotation Yrotation Zrotation
												End Site
												{
													OFFSET 5.180801 8.690506 1.388433
												}
											}
										}
									}
								}
								JOINT RightHandMiddle1
								{
									OFFSET -23.373947 0.000000 0.000001
									CHANNELS 3 Xrotation Yrotation Zrotation
									JOINT RightHandMiddle2
									{
										OFFSET -6.996567 0.000000 0.000000
										CHANNELS 3 Xrotation Yrotation Zrotation
										JOINT RightHandMiddle3
										{
											OFFSET -7.015945 0.000000 0.000000
											CHANNELS 3 Xrotation Yrotation Zrotation
											JOINT RightHandMiddle4
											{
												OFFSET -7.721573 0.000000 0.000000
												CHANNELS 3 Xrotation Yrotation Zrotation
												End Site
												{
													OFFSET 4.651108 6.158463 0.251582
												}
											}
										}
									}
								}
								JOINT RightHandRing1
								{
									OFFSET -22.726120 -0.094986 -6.500475
									CHANNELS 3 Xrotation Yrotation Zrotation
									JOINT RightHandRing2
									{
										OFFSET -6.408615 0.000000 0.000000
										CHANNELS 3 Xrotation Yrotation Zrotation
										JOINT RightHandRing3
										{
											OFFSET -6.150223 0.000000 0.000000
											CHANNELS 3 Xrotation Yrotation Zrotation
											JOINT RightHandRing4
											{
												OFFSET -6.145386 0.000000 0.000000
												CHANNELS 3 Xrotation Yrotation Zrotation
												End Site
												{
													OFFSET 3.671402 4.923981 -0.202372
												}
											}
										}
									}
								}
								JOINT RightHandPinky1
								{
									OFFSET -18.920792 -0.453171 -11.426712
									CHANNELS 3 Xrotation Yrotation Zrotation
									JOINT RightHandPinky2
									{
										OFFSET -4.919586 0.000000 0.000000
										CHANNELS 3 Xrotation Yrotation Zrotation
										JOINT RightHandPinky3
										{
											OFFSET -5.233047 0.000000 0.000000
											CHANNELS 3 Xrotation Yrotation Zrotation
											JOINT RightHandPinky4
											{
												OFFSET -5.571716 0.000000 0.000000
												CHANNELS 3 Xrotation Yrotation Zrotation
												End Site
												{
													OFFSET 3.459808 4.342407 -0.466164
												}
											}
										}
									}
								}
							}
						}
					}
				}
			}
		}
	}
	JOINT LeftUpLeg
	{
		OFFSET 19.899099 -7.885101 -3.429500
		CHANNELS 3 Xrotation Yrotation Zrotation
		JOINT LeftLeg
		{
			OFFSET 1.745560 -36.997807 10.304700
			CHANNELS 3 Xrotation Yrotation Zrotation
			JOINT LeftFoot
			{
				OFFSET -1.745558 -29.803308 -13.615400
				CHANNELS 3 Xrotation Yrotation Zrotation
				JOINT LeftToeBase
				{
					OFFSET 1.181900 -18.539904 15.226099
					CHANNELS 3 Xrotation Yrotation Zrotation
					JOINT LeftToe_End
					{
						OFFSET -0.863701 1.402801 16.534700
						CHANNELS 3 Xrotation Yrotation Zrotation
						End Site
						{
							OFFSET 0.000000 16.616566 0.000000
						}
					}
				}
			}
		}
	}
	JOINT RightUpLeg
	{
		OFFSET -19.899099 -7.885101 -3.429500
		CHANNELS 3 Xrotation Yrotation Zrotation
		JOINT RightLeg
		{
			OFFSET -1.745560 -36.997807 10.304700
			CHANNELS 3 Xrotation Yrotation Zrotation
			JOINT RightFoot
			{
				OFFSET 1.745558 -29.803308 -13.615400
				CHANNELS 3 Xrotation Yrotation Zrotation
				JOINT RightToeBase
				{
					OFFSET -1.181900 -18.539904 15.226099
					CHANNELS 3 Xrotation Yrotation Zrotation
					JOINT RightToe_End
					{
						OFFSET 0.863701 1.402801 16.534700
						CHANNELS 3 Xrotation Yrotation Zrotation
						End Site
						{
							OFFSET 0.000000 16.616566 0.000000
						}
					}
				}
			}
		}
	}
}
MOTION
Frames: 6
Frame Time: 0.033333
0.579123 50.562744 20.949873 0.146353 0.050556 0.848292 10.430469 0.146078 -1.478016 -0.199039 0.213342 -0.355470 -0.199359 0.248556 -0.300888 -1.001770 -1.284342 0.469464 -8.883499 -4.327064 -5.321561 0.000000 0.000000 0.000000 0.823506 -15.262065 -7.868795 4.742835 -21.219489 -54.864328 0.000038 -62.190252 0.000024 31.060657 4.308201 41.772440 6.610628 1.798231 20.801493 2.718093 20.182159 -24.386157 -5.537284 29.849511 5.070908 0.000000 -0.000000 -0.000001 2.042126 10.867355 -13.918974 0.168516 1.396426 -13.761328 0.107166 1.116550 -10.963893 -0.000000 -0.000000 -0.000000 1.797286 9.808120 -14.183647 0.205918 1.541096 -15.220668 0.265006 1.743718 -17.281757 -0.000000 0.000001 0.000003 1.299133 7.334319 -16.511077 0.329947 1.940087 -19.302229 0.233143 1.637821 -16.201881 0.000001 0.000000 -0.000001 -0.235315 2.798379 -26.913109 0.396833 2.121282 -21.189296 0.083158 0.984652 -9.655115 0.000000 0.000001 0.000001 3.171074 -4.378671 8.782955 -3.950948 37.253559 63.733902 -0.000001 55.137293 0.000014 43.537511 4.741278 -36.278591 -9.381094 -1.615810 -17.607633 3.557415 -24.336859 34.656267 -6.604794 -37.499238 -11.173909 -0.000002 -0.000000 -0.000003 2.957828 1.012714 13.529989 0.472460 -2.045700 26.006741 0.059734 -0.744316 9.176684 -0.000002 -0.000003 -0.000001 0.105490 -3.664236 2.525418 0.585000 -2.261686 29.000601 0.020458 -0.436583 5.367125 0.000001 0.000000 -0.000004 0.456430 -7.644377 4.305915 0.107461 -0.995724 12.319032 0.072394 -0.818804 10.104486 -0.000000 -0.000001 -0.000002 -11.162325 -10.227878 7.169829 0.029112 -0.520526 6.403063 0.028638 -0.516308 6.351272 -0.000000 0.000002 0.000004 -86.376649 -12.021527 20.548776 80.422001 -2.938769 -4.292829 8.679898 -5.939724 -9.535148 -0.103112 -0.000003 0.000000 0.000000 -0.000001 -0.000000 -88.135217 13.645311 -16.491072 81.377380 3.363407 2.592149 9.658619 -0.967727 10.698282 -0.191622 0.000003 0.000003 0.000000 0.000000 0.000000 
0.563984 50.553001 20.896528 -0.680390 0.036373 1.065012 10.263552 0.100960 -1.544270 0.428920 0.210433 -0.469750 0.428549 0.250128 -0.417729 -1.092436 -1.258730 0.602477 -8.795119 -4.029233 -5.375125 -0.000000 0.000000 0.000000 0.888732 -15.078121 -7.265216 3.406982 -21.872105 -55.316736 -0.000039 -60.979178 -0.000065 31.666328 5.319758 40.184995 6.178283 1.524187 23.494083 2.718096 20.182157 -24.386140 -6.415801 27.535914 4.899540 -0.000002 0.000005 0.000000 1.705093 11.386709 -10.581643 0.324485 1.924411 -19.140125 0.171540 1.408720 -13.884924 -0.000001 -0.000002 -0.000001 1.148705 9.316746 -9.211760 0.383281 2.086039 -20.820250 0.265003 1.743694 -17.281765 -0.000002 0.000000 0.000003 0.881758 6.844546 -11.739345 0.374521 2.062832 -20.578218 0.233147 1.637844 -16.201861 0.000001 -0.000000 0.000004 -0.323569 2.267895 -21.685620 0.385277 2.091243 -20.874928 0.083161 0.984648 -9.655123 -0.000004 0.000001 0.000001 2.971229 -4.453033 7.953435 -5.105482 39.225964 64.144403 0.000001 53.484500 -0.000003 41.786459 3.553337 -37.504903 -9.381080 -1.615829 -17.607644 3.557420 -24.336850 34.656257 -6.604802 -37.499238 -11.173898 -0.000003 -0.000002 0.000002 2.957834 1.012704 13.529987 0.472463 -2.045711 26.006736 0.059740 -0.744310 9.176688 -0.000001 0.000001 -0.000001 0.126458 -3.732178 3.372502 0.578441 -2.249822 28.833917 0.029868 -0.527081 6.484271 0.000001 0.000001 -0.000008 0.445197 -7.383610 4.428602 0.128552 -1.087803 13.478797 0.089170 -0.907936 11.217928 -0.000000 -0.000000 -0.000003 -11.000992 -11.207132 7.993808 0.018821 -0.418734 5.147410 0.058951 -0.739484 9.116533 -0.000001 0.000002 -0.000003 -85.504795 -11.788784 20.528468 80.495173 -2.967049 -4.301246 8.555219 -5.903645 -9.510253 -0.051315 0.000001 -0.000000 -0.000000 -0.000000 -0.000000 -87.564555 13.688795 -16.642171 81.581166 3.547687 2.575134 9.657195 -0.945785 10.488226 -0.005062 0.000001 0.000005 -0.000000 0.000002 0.000000 
0.559273 50.486061 20.715954 -1.930137 0.086925 1.252187 10.313871 0.055779 -1.589879 1.534264 0.213870 -0.565568 1.533649 0.245527 -0.517247 -0.915058 -1.268881 0.823846 -9.929804 -3.799799 -5.286686 -0.000000 0.000000 -0.000001 0.960793 -14.928075 -6.555655 1.602848 -22.750097 -55.365961 0.000009 -60.197223 -0.000004 32.055031 6.567849 38.440947 5.877668 1.122547 25.528464 2.718095 20.182159 -24.386152 -7.287151 25.384104 4.781183 0.000002 -0.000003 -0.000001 1.370190 11.953293 -8.435903 0.517842 2.410069 -24.249661 0.246303 1.682426 -16.655976 -0.000000 0.000000 -0.000002 0.724219 8.932124 -5.713553 0.605181 2.595092 -26.249663 0.265019 1.743705 -17.281757 -0.000001 0.000000 0.000003 0.630097 6.522141 -8.478934 0.421151 2.182953 -21.837035 0.233139 1.637813 -16.201866 -0.000000 0.000000 0.000008 -0.355166 1.856421 -17.624595 0.387205 2.096320 -20.927785 0.083164 0.984643 -9.655117 -0.000001 0.000003 -0.000003 2.752982 -4.569033 6.924107 -6.935094 41.765237 64.392606 0.000004 51.934692 -0.000001 39.488698 2.344056 -38.671913 -9.381092 -1.615821 -17.607642 3.557425 -24.336852 34.656260 -6.604812 -37.499228 -11.173880 0.000001 0.000000 0.000001 2.957828 1.012713 13.529989 0.472464 -2.045696 26.006744 0.059733 -0.744315 9.176688 -0.000002 -0.000003 -0.000001 0.152278 -3.811316 4.365031 0.574080 -2.241888 28.722749 0.042690 -0.629818 7.755358 -0.000000 0.000001 -0.000006 0.434702 -7.087463 4.613455 0.157885 -1.203571 14.945938 0.110329 -1.008774 12.482941 -0.000001 0.000001 -0.000003 -10.749875 -12.315396 9.006827 0.010613 -0.314491 3.863645 0.106376 -0.990732 12.256390 -0.000002 -0.000001 0.000000 -84.444060 -11.444848 20.591910 80.498718 -3.116901 -4.324562 8.684381 -5.938389 -9.390182 -0.580367 -0.000006 0.000002 -0.000000 -0.000000 -0.000000 -86.644030 13.729047 -16.932840 81.776926 3.844287 2.608262 9.754960 -0.971763 10.365158 0.047999 -0.000262 0.090357 0.000000 0.000000 -0.000000 
0.655339 50.401932 20.619846 -3.020655 0.186584 1.344393 10.463090 0.111904 -1.545451 3.450692 0.249034 -0.610071 3.449914 0.269882 -0.568846 -0.433761 -1.301831 0.850006 -12.865094 -3.981632 -4.978970 0.000000 -0.000000 0.000000 1.039476 -14.808438 -5.749078 -1.015287 -23.905071 -54.748686 0.000015 -60.008253 -0.000005 32.498771 7.443895 38.483673 5.786590 0.448620 26.161354 2.718094 20.182161 -24.386139 -8.165256 23.355432 4.737304 0.000002 -0.000000 -0.000001 1.053800 12.742513 -9.042550 0.744417 2.859860 -29.175054 0.330820 1.942526 -19.327531 -0.000000 0.000002 -0.000005 0.686639 8.970829 -5.317265 0.857021 3.052535 -31.358109 0.265002 1.743711 -17.281753 0.000000 0.000001 0.000005 0.657788 6.683013 -8.523280 0.466599 2.293007 -23.000717 0.233129 1.637843 -16.201864 -0.000001 -0.000001 0.000008 -0.359306 1.708025 -16.155248 0.423272 2.188234 -21.892730 0.083161 0.984654 -9.655106 0.000001 -0.000001 0.000003 2.516466 -4.720699 5.696908 -9.500479 44.641707 64.058350 0.000036 51.044497 -0.000024 36.539688 1.027245 -40.156226 -9.381093 -1.615822 -17.607639 3.557420 -24.336852 34.656277 -6.604790 -37.499234 -11.173899 0.000001 -0.000002 -0.000003 2.957828 1.012705 13.529987 0.472467 -2.045715 26.006731 0.059729 -0.744326 9.176691 -0.000000 0.000000 0.000001 0.185007 -3.905464 5.553474 0.583757 -2.259453 28.969161 0.058700 -0.737912 9.097047 0.000002 0.000000 -0.000008 0.436842 -6.786926 5.005240 0.208725 -1.380025 17.201036 0.135134 -1.114878 13.821297 -0.000002 -0.000000 -0.000003 -10.403632 -13.478792 10.229270 0.010564 -0.313907 3.856193 0.171381 -1.253038 15.575382 -0.000001 -0.000001 0.000004 -84.691006 -11.167302 20.214129 80.381846 -2.993158 -4.157690 11.393953 -6.210005 -8.546803 -2.522060 0.000001 -0.000003 -0.000000 -0.000000 -0.000000 -86.035132 13.765667 -17.144687 81.996967 4.089916 2.612818 10.250785 -1.011509 9.969897 -0.976137 -0.000012 0.000000 0.000000 -0.000001 -0.000000 
0.793022 50.408699 20.647598 -4.101611 0.325583 1.446791 10.383273 0.168555 -1.480817 6.206817 0.340784 -0.579881 6.206224 0.344390 -0.548238 -0.002178 -1.323705 0.351220 -17.619429 -4.772545 -4.463901 -0.000000 -0.000000 -0.000000 1.121922 -14.713033 -4.875644 -5.296773 -25.900168 -53.934063 0.000056 -58.677834 0.000032 33.319613 7.984001 39.890525 5.896452 -0.526148 25.252442 2.718094 20.182164 -24.386147 -9.073244 21.356714 4.764386 -0.000001 0.000002 -0.000001 0.897296 13.858175 -12.825865 1.010290 3.290545 -34.128072 0.427832 2.199509 -22.011453 -0.000002 -0.000002 -0.000004 1.086071 9.517466 -8.335553 1.126085 3.454933 -36.095941 0.264996 1.743707 -17.281763 -0.000001 -0.000000 0.000007 1.039003 7.400937 -12.284286 0.507773 2.387634 -24.009211 0.233137 1.637848 -16.201875 0.000000 0.000001 0.000004 -0.359001 1.855884 -17.611725 0.504890 2.381178 -23.939975 0.083177 0.984627 -9.655129 -0.000001 0.000003 0.000002 2.263534 -4.890214 4.333140 -12.941872 47.501223 63.276088 0.000009 50.660869 0.000004 33.324172 -0.418587 -42.416428 -9.381085 -1.615846 -17.607645 3.557411 -24.336833 34.656257 -6.604803 -37.499245 -11.173889 -0.000000 -0.000001 0.000001 2.957832 1.012706 13.529988 0.472471 -2.045712 26.006732 0.059732 -0.744313 9.176684 -0.000001 -0.000001 0.000003 0.225202 -4.013242 6.924978 0.617467 -2.319271 29.813175 0.076361 -0.840761 10.378181 0.000000 0.000001 -0.000001 0.459162 -6.522096 5.710290 0.296689 -1.637225 20.540699 0.161241 -1.216107 15.105226 0.000002 -0.000002 -0.000000 -9.991934 -14.584407 11.605465 0.027913 -0.509726 6.269928 0.247850 -1.500511 18.757359 -0.000002 0.000003 -0.000001 -85.255412 -11.141370 19.588293 79.767744 -3.166062 -4.026391 16.073991 -6.084639 -8.047173 -5.608282 -0.000003 -0.000004 -0.000000 0.000001 0.000000 -86.344315 13.787347 -17.018156 81.977816 4.199613 2.538902 13.264345 -1.058065 8.849036 -4.193473 -0.000000 0.000002 0.000000 -0.000000 0.000000 
0.690613 50.696716 20.811117 -4.854722 0.658520 1.842264 10.238570 0.228176 -1.425959 6.831203 0.426672 -0.492767 9.255954 0.432373 -0.462422 -0.295044 -1.306858 -0.662927 -23.254783 -5.883015 -3.853133 0.000000 -0.000000 0.000000 1.201553 -14.633948 -3.989600 -10.402026 -28.138452 -53.904772 0.000012 -57.295564 -0.000014 34.417999 8.674526 41.541197 6.133331 -1.702250 23.371056 2.718086 20.182142 -24.386144 -9.981645 19.443066 4.853482 0.000001 0.000001 0.000000 0.999222 15.169983 -18.288948 1.251692 3.620624 -38.131529 0.533832 2.445238 -24.627183 0.000000 0.000000 -0.000002 1.835264 10.333016 -13.352864 1.372704 3.769352 -40.008700 0.265020 1.743695 -17.281750 0.000001 0.000001 0.000003 1.773733 8.408663 -18.310810 0.537273 2.452737 -24.707890 0.233147 1.637824 -16.201873 0.000001 -0.000000 0.000001 -0.343062 2.186278 -20.866185 0.622461 2.629788 -26.628628 0.083167 0.984647 -9.655125 -0.000002 0.000001 0.000002 1.999692 -5.055229 2.919253 -18.024393 50.567934 63.786153 -0.000024 48.160337 0.000052 31.219494 -1.465863 -45.167822 -9.381085 -1.615809 -17.607644 3.557409 -24.336843 34.656267 -6.604798 -37.499258 -11.173909 -0.000001 0.000000 0.000002 2.957837 1.012720 13.529987 0.472470 -2.045708 26.006727 0.059735 -0.744305 9.176689 -0.000002 -0.000003 -0.000004 0.270896 -4.127065 8.387697 0.678026 -2.421796 31.276823 0.093362 -0.928912 11.480583 0.000001 -0.000001 -0.000004 0.501318 -6.324706 6.722080 0.431741 -1.960092 24.841647 0.185453 -1.302458 16.206499 0.000001 -0.000000 -0.000008 -9.577183 -15.523111 12.907248 0.110591 -1.009943 12.497902 0.324453 -1.709476 21.491498 0.000001 -0.000001 -0.000003 -87.631976 -9.952521 16.793668 78.070285 -3.394671 -3.561037 22.747197 -5.652803 -6.184078 -8.817613 -0.000000 -0.000003 0.000000 -0.000000 0.000000 -87.083020 13.827402 -16.753698 81.884426 3.843862 2.288541 17.180928 -1.051416 7.256680 -7.276818 0.000006 0.000005 0.000000 0.000001 0.000000 
